<?xml version="1.0" encoding="UTF-8"?>
<svg xmlns="http://www.w3.org/2000/svg" id="Layer_1" data-name="Layer 1" viewBox="0 0 24 24">
  <circle cx="3.5" cy="9.5" r="2.5"/>
  <circle cx="20.5" cy="9.5" r="2.5"/>
  <path d="M21.496,13.041c-.881-.144-1.768,.104-2.439,.674-.098,.083-2.895,2.286-2.895,2.286h-3.162v2h3.838l1.162-.887v6.887h6v-7.893c0-1.516-1.076-2.834-2.504-3.066Zm.504,8.959h-2v-6c-.011-.605,.575-1.103,1.175-.986,.463,.076,.825,.556,.825,1.093v5.893Z"/>
  <polygon points="8 24 10 24 10 22 14 22 14 24 16 24 16 20 8 20 8 24"/>
  <path d="M11,18v-2h-3.162s-2.797-2.202-2.895-2.286c-.672-.571-1.562-.82-2.44-.674-1.427,.232-2.503,1.551-2.503,3.066v7.893H6v-6.887l1.162,.887h3.838Zm-7,4H2v-5.893c0-.537,.362-1.017,.824-1.093,.6-.114,1.187,.379,1.176,.986v6Z"/>
  <path d="M11.275,3.064h0c-1.643,.292-2.97,1.649-3.227,3.303-.25,1.614,.486,3.202,1.873,4.043,.362,.22,.578,.56,.578,.909v1.682h3v-1.686c0-.354,.193-.679,.517-.867,1.224-.713,1.983-2.034,1.983-3.447,0-1.187-.521-2.304-1.432-3.066-.911-.764-2.114-1.078-3.293-.87Zm2.725,3.936c0,.715-.37,1.357-.991,1.719-.415,.242-.76,.574-1.014,.96-.259-.385-.608-.721-1.035-.979-.704-.427-1.062-1.204-.935-2.027,.126-.808,.798-1.498,1.6-1.64,1.208-.251,2.398,.746,2.375,1.966Z"/>
  <rect x="11" width="2" height="2"/>
  <rect x="15.242" y="1.757" width="2" height="2" transform="translate(2.808 12.293) rotate(-45)"/>
  <rect x="6.758" y="1.757" width="2" height="2" transform="translate(.322 6.293) rotate(-45)"/>
</svg>
