<svg id="Layer_1" viewBox="0 0 24 24" xmlns="http://www.w3.org/2000/svg" data-name="Layer 1"><path d="m12 20c0 .553-.448 1-1 1h-2c-.552 0-1-.447-1-1s.448-1 1-1h2c.552 0 1 .447 1 1zm6-3v2c0 2.757-2.243 5-5 5h-6c-2.757 0-5-2.243-5-5v-14c0-2.757 2.243-5 5-5h6c.552 0 1 .448 1 1s-.448 1-1 1h-6c-1.654 0-3 1.346-3 3v11h13c.552 0 1 .447 1 1zm-2 2v-1h-12v1c0 1.654 1.346 3 3 3h6c1.654 0 3-1.346 3-3zm5.999-11.955v2.443c0 1.198-.651 2.304-1.699 2.886l-2.183 1.211c-.495.275-1.048.412-1.601.412-.567 0-1.134-.144-1.638-.432l-2.217-1.268c-1.025-.586-1.662-1.684-1.662-2.865v-2.389c0-1.187.642-2.287 1.674-2.872l2.196-1.244c1.001-.568 2.247-.568 3.249-.002l2.204 1.245c1.035.584 1.677 1.686 1.677 2.873zm-7.913-1.375 2.415 1.38 2.411-1.378-1.777-1.004c-.197-.111-.418-.167-.639-.167s-.443.056-.641.168zm1.409 5.944.003-2.833-2.499-1.428v2.08c0 .465.251.898.655 1.129l1.841 1.053zm4.504-2.126v-2.134l-2.501 1.43-.003 2.859 1.834-1.019c.413-.229.669-.665.669-1.137z"/></svg>