<svg id="Layer_1" viewBox="0 0 24 24" xmlns="http://www.w3.org/2000/svg" data-name="Layer 1"><path d="m11.5 19h-2.427c.156 1.409.624 2.76 1.409 3.949l-1.669 1.102c-1.002-1.517-1.6-3.247-1.763-5.051h-2.621l3.536-3.536 3.536 3.536zm10.782.313 1.416.816-.998 1.732-1.411-.813c-.605.652-1.393 1.126-2.29 1.331v1.621h-2v-1.621c-.896-.205-1.685-.679-2.29-1.331l-1.411.813-.999-1.732 1.417-.816c-.129-.418-.218-.853-.218-1.313s.09-.895.218-1.313l-1.417-.816.999-1.732 1.411.813c.605-.652 1.393-1.126 2.29-1.331v-1.621h2v1.621c.896.205 1.685.679 2.29 1.331l1.411-.813.998 1.732-1.416.816c.129.418.218.853.218 1.313s-.089.895-.218 1.313zm-1.782-1.313c0-1.379-1.121-2.5-2.5-2.5s-2.5 1.121-2.5 2.5 1.121 2.5 2.5 2.5 2.5-1.121 2.5-2.5zm-7.065-6.549c-.887.62-1.648 1.408-2.222 2.329-.846.141-1.754.219-2.712.219-2.665 0-4.965-.588-6.5-1.541v7.327c0 .55 1.241 1.476 3.549 1.936.225.75.52 1.469.871 2.156-3.441-.397-6.42-1.783-6.42-4.092v-15.285c-.001-2.565 3.653-4.5 8.499-4.5s8.5 1.935 8.5 4.5v5.58c-.677.091-1.383.279-2 .529v-3.15c-1.535.954-3.835 1.541-6.5 1.541s-4.965-.588-6.5-1.541v2.041c0 1.02 2.532 2.5 6.5 2.5 2.455 0 3.979-.252 4.935-.549zm-11.435-6.951c0 1.02 2.532 2.5 6.5 2.5s6.5-1.48 6.5-2.5-2.532-2.5-6.5-2.5-6.5 1.48-6.5 2.5z"/></svg>