<?xml version="1.0" encoding="UTF-8"?>
<svg id="Camada_1" data-name="Camada 1" xmlns="http://www.w3.org/2000/svg" viewBox="0 0 833.53 267.28">
  <defs>
    <style>
      .cls-1 {
        fill: #002555;
      }

      .cls-2 {
        fill: #f5ac00;
      }
    </style>
  </defs>
  <path class="cls-2" d="M65.43,32.57C65.43,14.67,50.76,0,32.86,0S0,14.67,0,32.57s14.67,32.86,32.86,32.86,32.57-14.67,32.57-32.86"/>
  <path class="cls-1" d="M196.87,245.57c-12.03,0-23.47-5.57-31.69-15.84v-75.11c8.22-10.27,19.66-15.84,31.69-15.84,19.66,0,31.1,16.14,31.1,52.81s-11.44,53.98-31.1,53.98M611.73,136.72c17.31,0,26.11,14.08,26.11,38.14h-53.4c1.47-23.18,10.86-38.14,27.29-38.14M822.09,227.97c-12.91,12.91-22.3,19.07-36.97,19.07-26.11,0-41.08-24.35-41.08-54.86s9.98-56.33,36.97-56.33c22.59,0,32.57,11.44,34.91,40.49h14.08v-41.37c-13.2-9.98-34.03-17.31-52.81-17.31-44.3,0-76.87,29.63-76.87,73.35,0,47.82,28.75,75.99,77.75,75.99,22.3,0,41.08-9.98,55.45-28.46l-11.44-10.56ZM622.29,247.04c-24.06,0-38.43-19.66-38.14-56.04h95.35c0-45.48-23.76-73.35-65.13-73.35s-73.35,29.34-73.35,73.94,30.51,75.7,73.64,75.7c29.93,0,47.53-9.98,65.13-32.27l-11.44-10.56c-15.26,17.02-28.17,22.59-46.06,22.59M468.84,117.65c-17.31,0-31.69,7.04-46.65,21.71-7.92-14.38-22-21.71-40.2-21.71-16.72,0-31.39,6.75-43.42,18.19v-15.84h-59.27v16.43h19.36v127.92h41.66v-110.02c8.22-9.98,18.19-15.55,29.34-15.55,12.62,0,19.07,7.92,19.07,22.88v102.69h41.08v-90.95c0-6.16-.59-11.74-1.47-17.02,8.8-10.86,20.24-17.6,30.81-17.6,12.62,0,19.07,7.92,19.07,22.88v102.69h41.08v-97.41c0-31.1-18.78-49.29-50.46-49.29M205.96,117.65c-16.43,0-29.34,5.87-40.78,16.43v-52.52h-64.25v16.43h22.3v149.92h-22.3v16.43h62.49v-15.55c12.03,11.44,25.23,17.9,42.54,17.9,40.78,0,66.6-26.99,66.6-74.82s-25.82-74.23-66.6-74.23M74.52,97.99v-16.43H9.98v182.78h64.55v-16.43h-22.59V97.99h22.59Z"/>
</svg>